%TF.GenerationSoftware,KiCad,Pcbnew,9.0.0*%
%TF.CreationDate,2025-03-21T01:21:14+03:00*%
%TF.ProjectId,MasterBoard,4d617374-6572-4426-9f61-72642e6b6963,rev?*%
%TF.SameCoordinates,Original*%
%TF.FileFunction,Paste,Top*%
%TF.FilePolarity,Positive*%
%FSLAX46Y46*%
G04 Gerber Fmt 4.6, Leading zero omitted, Abs format (unit mm)*
G04 Created by KiCad (PCBNEW 9.0.0) date 2025-03-21 01:21:14*
%MOMM*%
%LPD*%
G01*
G04 APERTURE LIST*
G04 Aperture macros list*
%AMRoundRect*
0 Rectangle with rounded corners*
0 $1 Rounding radius*
0 $2 $3 $4 $5 $6 $7 $8 $9 X,Y pos of 4 corners*
0 Add a 4 corners polygon primitive as box body*
4,1,4,$2,$3,$4,$5,$6,$7,$8,$9,$2,$3,0*
0 Add four circle primitives for the rounded corners*
1,1,$1+$1,$2,$3*
1,1,$1+$1,$4,$5*
1,1,$1+$1,$6,$7*
1,1,$1+$1,$8,$9*
0 Add four rect primitives between the rounded corners*
20,1,$1+$1,$2,$3,$4,$5,0*
20,1,$1+$1,$4,$5,$6,$7,0*
20,1,$1+$1,$6,$7,$8,$9,0*
20,1,$1+$1,$8,$9,$2,$3,0*%
G04 Aperture macros list end*
%ADD10RoundRect,0.250000X-0.262500X-0.450000X0.262500X-0.450000X0.262500X0.450000X-0.262500X0.450000X0*%
%ADD11RoundRect,0.250000X-0.550000X1.500000X-0.550000X-1.500000X0.550000X-1.500000X0.550000X1.500000X0*%
%ADD12RoundRect,0.250000X0.450000X-0.262500X0.450000X0.262500X-0.450000X0.262500X-0.450000X-0.262500X0*%
%ADD13RoundRect,0.225000X0.225000X-0.325000X0.225000X0.325000X-0.225000X0.325000X-0.225000X-0.325000X0*%
%ADD14RoundRect,0.225000X0.225000X-0.475000X0.225000X0.475000X-0.225000X0.475000X-0.225000X-0.475000X0*%
%ADD15RoundRect,0.250000X-0.450000X-0.300000X0.450000X-0.300000X0.450000X0.300000X-0.450000X0.300000X0*%
%ADD16RoundRect,0.250000X-0.450000X-0.450000X0.450000X-0.450000X0.450000X0.450000X-0.450000X0.450000X0*%
%ADD17RoundRect,0.250000X-2.050000X-0.300000X2.050000X-0.300000X2.050000X0.300000X-2.050000X0.300000X0*%
%ADD18R,1.800000X1.700000*%
%ADD19RoundRect,0.250000X0.250000X0.475000X-0.250000X0.475000X-0.250000X-0.475000X0.250000X-0.475000X0*%
%ADD20R,0.900000X0.800000*%
%ADD21R,0.800000X0.900000*%
%ADD22RoundRect,0.250000X0.262500X0.450000X-0.262500X0.450000X-0.262500X-0.450000X0.262500X-0.450000X0*%
%ADD23RoundRect,0.250000X-0.250000X-0.475000X0.250000X-0.475000X0.250000X0.475000X-0.250000X0.475000X0*%
%ADD24RoundRect,0.243750X0.243750X0.456250X-0.243750X0.456250X-0.243750X-0.456250X0.243750X-0.456250X0*%
%ADD25RoundRect,0.250000X-0.475000X0.250000X-0.475000X-0.250000X0.475000X-0.250000X0.475000X0.250000X0*%
%ADD26RoundRect,0.112500X0.187500X0.112500X-0.187500X0.112500X-0.187500X-0.112500X0.187500X-0.112500X0*%
%ADD27RoundRect,0.250000X-0.450000X0.262500X-0.450000X-0.262500X0.450000X-0.262500X0.450000X0.262500X0*%
%ADD28R,1.700000X1.800000*%
%ADD29RoundRect,0.075000X-0.075000X0.725000X-0.075000X-0.725000X0.075000X-0.725000X0.075000X0.725000X0*%
%ADD30RoundRect,0.075000X-0.725000X0.075000X-0.725000X-0.075000X0.725000X-0.075000X0.725000X0.075000X0*%
%ADD31RoundRect,0.250000X0.925000X1.500000X-0.925000X1.500000X-0.925000X-1.500000X0.925000X-1.500000X0*%
%ADD32RoundRect,0.250000X0.475000X-0.250000X0.475000X0.250000X-0.475000X0.250000X-0.475000X-0.250000X0*%
%ADD33RoundRect,0.250000X-0.250000X0.525000X-0.250000X-0.525000X0.250000X-0.525000X0.250000X0.525000X0*%
%ADD34RoundRect,0.112500X-0.112500X0.187500X-0.112500X-0.187500X0.112500X-0.187500X0.112500X0.187500X0*%
%ADD35RoundRect,0.250000X-1.500000X-0.550000X1.500000X-0.550000X1.500000X0.550000X-1.500000X0.550000X0*%
%ADD36RoundRect,0.250000X1.500000X0.550000X-1.500000X0.550000X-1.500000X-0.550000X1.500000X-0.550000X0*%
%ADD37RoundRect,0.243750X-0.243750X-0.456250X0.243750X-0.456250X0.243750X0.456250X-0.243750X0.456250X0*%
%ADD38RoundRect,0.150000X-0.150000X0.512500X-0.150000X-0.512500X0.150000X-0.512500X0.150000X0.512500X0*%
%ADD39R,0.450000X1.750000*%
G04 APERTURE END LIST*
D10*
%TO.C,R11*%
X165450500Y-67556398D03*
X167275500Y-67556398D03*
%TD*%
D11*
%TO.C,C5*%
X161513000Y-71356398D03*
X161513000Y-76756398D03*
%TD*%
D12*
%TO.C,R107*%
X115058000Y-126871120D03*
X115058000Y-125046120D03*
%TD*%
D13*
%TO.C,U2*%
X140363000Y-55206398D03*
D14*
X140363000Y-56656398D03*
X140363000Y-58256398D03*
X140363000Y-59856398D03*
X140363000Y-61456398D03*
X140363000Y-63056398D03*
D13*
X140363000Y-64506398D03*
D15*
X141713000Y-55206398D03*
D16*
X141713000Y-56656398D03*
X141713000Y-58256398D03*
X141713000Y-59856398D03*
X141713000Y-61456398D03*
X141713000Y-63056398D03*
D15*
X141713000Y-64506398D03*
X143313000Y-55206398D03*
D16*
X143313000Y-56656398D03*
X143313000Y-58256398D03*
X143313000Y-59856398D03*
X143313000Y-61456398D03*
X143313000Y-63056398D03*
D15*
X143313000Y-64506398D03*
X144913000Y-55206398D03*
D16*
X144913000Y-56656398D03*
X144913000Y-58256398D03*
X144913000Y-59856398D03*
X144913000Y-61456398D03*
X144913000Y-63056398D03*
D15*
X144913000Y-64506398D03*
X146563000Y-55206398D03*
D16*
X146563000Y-56656398D03*
X146563000Y-58256398D03*
X146563000Y-59856398D03*
X146563000Y-61456398D03*
X146563000Y-63056398D03*
D15*
X146563000Y-64506398D03*
X148163000Y-55206398D03*
D16*
X148163000Y-56656398D03*
X148163000Y-58256398D03*
X148163000Y-59856398D03*
X148163000Y-61456398D03*
X148163000Y-63056398D03*
D15*
X148163000Y-64506398D03*
D17*
X135338000Y-56456398D03*
X135338000Y-58156398D03*
X135338000Y-59856398D03*
X135338000Y-61556398D03*
X135338000Y-63256398D03*
%TD*%
D18*
%TO.C,D2*%
X158973000Y-67406398D03*
X162653000Y-67406398D03*
%TD*%
D19*
%TO.C,C35*%
X130433000Y-132796398D03*
X128533000Y-132796398D03*
%TD*%
D20*
%TO.C,Q41*%
X107758000Y-67981954D03*
X107758000Y-69881954D03*
X109758000Y-68931954D03*
%TD*%
D21*
%TO.C,Q1*%
X121363000Y-56456398D03*
X123263000Y-56456398D03*
X122313000Y-54456398D03*
%TD*%
D20*
%TO.C,Q37*%
X107758000Y-87607509D03*
X107758000Y-89507509D03*
X109758000Y-88557509D03*
%TD*%
D22*
%TO.C,R21*%
X161493000Y-182536398D03*
X159668000Y-182536398D03*
%TD*%
D13*
%TO.C,U1*%
X159613000Y-55206398D03*
D14*
X159613000Y-56656398D03*
X159613000Y-58256398D03*
X159613000Y-59856398D03*
X159613000Y-61456398D03*
X159613000Y-63056398D03*
D13*
X159613000Y-64506398D03*
D15*
X160963000Y-55206398D03*
D16*
X160963000Y-56656398D03*
X160963000Y-58256398D03*
X160963000Y-59856398D03*
X160963000Y-61456398D03*
X160963000Y-63056398D03*
D15*
X160963000Y-64506398D03*
X162563000Y-55206398D03*
D16*
X162563000Y-56656398D03*
X162563000Y-58256398D03*
X162563000Y-59856398D03*
X162563000Y-61456398D03*
X162563000Y-63056398D03*
D15*
X162563000Y-64506398D03*
X164163000Y-55206398D03*
D16*
X164163000Y-56656398D03*
X164163000Y-58256398D03*
X164163000Y-59856398D03*
X164163000Y-61456398D03*
X164163000Y-63056398D03*
D15*
X164163000Y-64506398D03*
X165813000Y-55206398D03*
D16*
X165813000Y-56656398D03*
X165813000Y-58256398D03*
X165813000Y-59856398D03*
X165813000Y-61456398D03*
X165813000Y-63056398D03*
D15*
X165813000Y-64506398D03*
X167413000Y-55206398D03*
D16*
X167413000Y-56656398D03*
X167413000Y-58256398D03*
X167413000Y-59856398D03*
X167413000Y-61456398D03*
X167413000Y-63056398D03*
D15*
X167413000Y-64506398D03*
D17*
X154588000Y-56456398D03*
X154588000Y-58156398D03*
X154588000Y-59856398D03*
X154588000Y-61556398D03*
X154588000Y-63256398D03*
%TD*%
D23*
%TO.C,C26*%
X141763000Y-104206398D03*
X143663000Y-104206398D03*
%TD*%
D12*
%TO.C,R48*%
X116758000Y-233348898D03*
X116758000Y-231523898D03*
%TD*%
D24*
%TO.C,LD4*%
X172800500Y-51906398D03*
X170925500Y-51906398D03*
%TD*%
D25*
%TO.C,C53*%
X116758000Y-79231954D03*
X116758000Y-81131954D03*
%TD*%
D26*
%TO.C,D5*%
X140113000Y-226806398D03*
X138013000Y-226806398D03*
%TD*%
D22*
%TO.C,R40*%
X126885500Y-132746398D03*
X125060500Y-132746398D03*
%TD*%
%TO.C,R36*%
X136225500Y-88196398D03*
X134400500Y-88196398D03*
%TD*%
D10*
%TO.C,R32*%
X128000500Y-212756398D03*
X129825500Y-212756398D03*
%TD*%
D12*
%TO.C,R143*%
X115058000Y-67994454D03*
X115058000Y-66169454D03*
%TD*%
D11*
%TO.C,C4*%
X168763000Y-71356398D03*
X168763000Y-76756398D03*
%TD*%
D20*
%TO.C,Q9*%
X107758000Y-224986398D03*
X107758000Y-226886398D03*
X109758000Y-225936398D03*
%TD*%
D25*
%TO.C,C33*%
X128850500Y-99656398D03*
X128850500Y-101556398D03*
%TD*%
D22*
%TO.C,R3*%
X161275500Y-92756398D03*
X159450500Y-92756398D03*
%TD*%
D27*
%TO.C,R81*%
X111758000Y-182947787D03*
X111758000Y-184772787D03*
%TD*%
D25*
%TO.C,C44*%
X115058000Y-148134176D03*
X115058000Y-150034176D03*
%TD*%
D27*
%TO.C,R118*%
X111758000Y-127796120D03*
X111758000Y-129621120D03*
%TD*%
D21*
%TO.C,Q3*%
X160058500Y-104456398D03*
X161958500Y-104456398D03*
X161008500Y-102456398D03*
%TD*%
D11*
%TO.C,C1*%
X154363000Y-46456398D03*
X154363000Y-51856398D03*
%TD*%
D20*
%TO.C,Q2*%
X122313000Y-50406398D03*
X122313000Y-48506398D03*
X120313000Y-49456398D03*
%TD*%
D12*
%TO.C,R96*%
X116758000Y-154846676D03*
X116758000Y-153021676D03*
%TD*%
D18*
%TO.C,D3*%
X139623000Y-67406398D03*
X143303000Y-67406398D03*
%TD*%
D28*
%TO.C,D4*%
X153213000Y-84206398D03*
X153213000Y-87886398D03*
%TD*%
D24*
%TO.C,LD1*%
X172800500Y-62706398D03*
X170925500Y-62706398D03*
%TD*%
D29*
%TO.C,U5*%
X144863000Y-108981398D03*
X144363000Y-108981398D03*
X143862999Y-108981398D03*
X143363000Y-108981398D03*
X142863001Y-108981398D03*
X142363000Y-108981398D03*
X141863000Y-108981398D03*
X141362999Y-108981398D03*
X140863000Y-108981398D03*
X140363000Y-108981398D03*
X139863000Y-108981398D03*
X139363000Y-108981398D03*
X138863000Y-108981397D03*
X138363000Y-108981398D03*
X137863000Y-108981398D03*
X137363000Y-108981398D03*
X136863000Y-108981398D03*
X136363001Y-108981398D03*
X135863000Y-108981398D03*
X135363000Y-108981398D03*
X134862999Y-108981398D03*
X134363000Y-108981398D03*
X133863001Y-108981398D03*
X133363000Y-108981398D03*
X132863000Y-108981398D03*
D30*
X131188000Y-110656398D03*
X131188000Y-111156398D03*
X131188000Y-111656399D03*
X131188000Y-112156398D03*
X131188000Y-112656397D03*
X131188000Y-113156398D03*
X131188000Y-113656398D03*
X131188000Y-114156399D03*
X131188000Y-114656398D03*
X131188000Y-115156398D03*
X131188000Y-115656398D03*
X131188000Y-116156398D03*
X131187999Y-116656398D03*
X131188000Y-117156398D03*
X131188000Y-117656398D03*
X131188000Y-118156398D03*
X131188000Y-118656398D03*
X131188000Y-119156397D03*
X131188000Y-119656398D03*
X131188000Y-120156398D03*
X131188000Y-120656399D03*
X131188000Y-121156398D03*
X131188000Y-121656397D03*
X131188000Y-122156398D03*
X131188000Y-122656398D03*
D29*
X132863000Y-124331398D03*
X133363000Y-124331398D03*
X133863001Y-124331398D03*
X134363000Y-124331398D03*
X134862999Y-124331398D03*
X135363000Y-124331398D03*
X135863000Y-124331398D03*
X136363001Y-124331398D03*
X136863000Y-124331398D03*
X137363000Y-124331398D03*
X137863000Y-124331398D03*
X138363000Y-124331398D03*
X138863000Y-124331399D03*
X139363000Y-124331398D03*
X139863000Y-124331398D03*
X140363000Y-124331398D03*
X140863000Y-124331398D03*
X141362999Y-124331398D03*
X141863000Y-124331398D03*
X142363000Y-124331398D03*
X142863001Y-124331398D03*
X143363000Y-124331398D03*
X143862999Y-124331398D03*
X144363000Y-124331398D03*
X144863000Y-124331398D03*
D30*
X146538000Y-122656398D03*
X146538000Y-122156398D03*
X146538000Y-121656397D03*
X146538000Y-121156398D03*
X146538000Y-120656399D03*
X146538000Y-120156398D03*
X146538000Y-119656398D03*
X146538000Y-119156397D03*
X146538000Y-118656398D03*
X146538000Y-118156398D03*
X146538000Y-117656398D03*
X146538000Y-117156398D03*
X146538001Y-116656398D03*
X146538000Y-116156398D03*
X146538000Y-115656398D03*
X146538000Y-115156398D03*
X146538000Y-114656398D03*
X146538000Y-114156399D03*
X146538000Y-113656398D03*
X146538000Y-113156398D03*
X146538000Y-112656397D03*
X146538000Y-112156398D03*
X146538000Y-111656399D03*
X146538000Y-111156398D03*
X146538000Y-110656398D03*
%TD*%
D12*
%TO.C,R8*%
X131463000Y-57618898D03*
X131463000Y-55793898D03*
%TD*%
%TO.C,R28*%
X137763000Y-213068898D03*
X137763000Y-211243898D03*
%TD*%
%TO.C,R72*%
X116758000Y-194097787D03*
X116758000Y-192272787D03*
%TD*%
D10*
%TO.C,R45*%
X156550500Y-112656398D03*
X158375500Y-112656398D03*
%TD*%
D19*
%TO.C,C22*%
X137313000Y-101756398D03*
X135413000Y-101756398D03*
%TD*%
D12*
%TO.C,R119*%
X115058000Y-107245565D03*
X115058000Y-105420565D03*
%TD*%
D27*
%TO.C,R70*%
X111758000Y-206298342D03*
X111758000Y-208123342D03*
%TD*%
D25*
%TO.C,C16*%
X128483000Y-123156398D03*
X128483000Y-125056398D03*
%TD*%
D20*
%TO.C,Q44*%
X107758000Y-44618898D03*
X107758000Y-46518898D03*
X109758000Y-45568898D03*
%TD*%
D25*
%TO.C,C39*%
X116758000Y-216610842D03*
X116758000Y-218510842D03*
%TD*%
D20*
%TO.C,Q16*%
X107758000Y-181997787D03*
X107758000Y-183897787D03*
X109758000Y-182947787D03*
%TD*%
D27*
%TO.C,R141*%
X111758000Y-84820009D03*
X111758000Y-86645009D03*
%TD*%
D12*
%TO.C,R4*%
X150713000Y-61318898D03*
X150713000Y-59493898D03*
%TD*%
D20*
%TO.C,Q21*%
X107758000Y-166109731D03*
X107758000Y-168009731D03*
X109758000Y-167059731D03*
%TD*%
D12*
%TO.C,R83*%
X115058000Y-166122231D03*
X115058000Y-164297231D03*
%TD*%
D20*
%TO.C,Q13*%
X107758000Y-205360842D03*
X107758000Y-207260842D03*
X109758000Y-206310842D03*
%TD*%
D21*
%TO.C,Q4*%
X163433000Y-151856398D03*
X165333000Y-151856398D03*
X164383000Y-149856398D03*
%TD*%
D12*
%TO.C,R95*%
X115058000Y-146496676D03*
X115058000Y-144671676D03*
%TD*%
%TO.C,R29*%
X139263000Y-216818898D03*
X139263000Y-214993898D03*
%TD*%
D20*
%TO.C,Q45*%
X107758000Y-48356398D03*
X107758000Y-50256398D03*
X109758000Y-49306398D03*
%TD*%
D25*
%TO.C,C46*%
X115058000Y-128508620D03*
X115058000Y-130408620D03*
%TD*%
D20*
%TO.C,Q28*%
X107758000Y-123121120D03*
X107758000Y-125021120D03*
X109758000Y-124071120D03*
%TD*%
D12*
%TO.C,R5*%
X131463000Y-61218898D03*
X131463000Y-59393898D03*
%TD*%
D20*
%TO.C,Q36*%
X107758000Y-83870009D03*
X107758000Y-85770009D03*
X109758000Y-84820009D03*
%TD*%
D24*
%TO.C,LD10*%
X162913000Y-107106398D03*
X161038000Y-107106398D03*
%TD*%
D27*
%TO.C,R57*%
X111758000Y-222198898D03*
X111758000Y-224023898D03*
%TD*%
D12*
%TO.C,R23*%
X160613000Y-174506398D03*
X160613000Y-172681398D03*
%TD*%
D22*
%TO.C,R44*%
X167783000Y-148836398D03*
X165958000Y-148836398D03*
%TD*%
D24*
%TO.C,LD2*%
X172800500Y-59156398D03*
X170925500Y-59156398D03*
%TD*%
D27*
%TO.C,R93*%
X111758000Y-163322231D03*
X111758000Y-165147231D03*
%TD*%
D25*
%TO.C,C43*%
X116758000Y-177359731D03*
X116758000Y-179259731D03*
%TD*%
D12*
%TO.C,R120*%
X116758000Y-115595565D03*
X116758000Y-113770565D03*
%TD*%
%TO.C,R132*%
X116758000Y-95970009D03*
X116758000Y-94145009D03*
%TD*%
D22*
%TO.C,R17*%
X164165500Y-167146398D03*
X162340500Y-167146398D03*
%TD*%
D25*
%TO.C,C52*%
X115058000Y-69631954D03*
X115058000Y-71531954D03*
%TD*%
D27*
%TO.C,R43*%
X163223000Y-146063898D03*
X163223000Y-147888898D03*
%TD*%
D12*
%TO.C,R108*%
X116758000Y-135221120D03*
X116758000Y-133396120D03*
%TD*%
D22*
%TO.C,R20*%
X160293000Y-185846398D03*
X158468000Y-185846398D03*
%TD*%
D20*
%TO.C,Q8*%
X107758000Y-221248898D03*
X107758000Y-223148898D03*
X109758000Y-222198898D03*
%TD*%
D22*
%TO.C,R13*%
X158525500Y-126706398D03*
X156700500Y-126706398D03*
%TD*%
D10*
%TO.C,R34*%
X128838000Y-103306398D03*
X130663000Y-103306398D03*
%TD*%
D23*
%TO.C,C27*%
X134862999Y-106156398D03*
X136762999Y-106156398D03*
%TD*%
D31*
%TO.C,L3*%
X149888000Y-84206398D03*
X143838000Y-84206398D03*
%TD*%
D32*
%TO.C,C8*%
X145113000Y-71506398D03*
X145113000Y-69606398D03*
%TD*%
D27*
%TO.C,R38*%
X128863000Y-108643898D03*
X128863000Y-110468898D03*
%TD*%
%TO.C,R166*%
X111758000Y-49293898D03*
X111758000Y-51118898D03*
%TD*%
D19*
%TO.C,C28*%
X133163000Y-106156398D03*
X131263000Y-106156398D03*
%TD*%
D27*
%TO.C,R106*%
X111758000Y-147421676D03*
X111758000Y-149246676D03*
%TD*%
D12*
%TO.C,R71*%
X115058000Y-185747787D03*
X115058000Y-183922787D03*
%TD*%
D24*
%TO.C,LD8*%
X162833500Y-98206398D03*
X160958500Y-98206398D03*
%TD*%
D20*
%TO.C,Q29*%
X107758000Y-126858620D03*
X107758000Y-128758620D03*
X109758000Y-127808620D03*
%TD*%
D12*
%TO.C,R10*%
X170813000Y-68018898D03*
X170813000Y-66193898D03*
%TD*%
D32*
%TO.C,C12*%
X131175500Y-86356398D03*
X131175500Y-84456398D03*
%TD*%
D10*
%TO.C,R26*%
X122313000Y-52506398D03*
X124138000Y-52506398D03*
%TD*%
D25*
%TO.C,C7*%
X136363000Y-75006398D03*
X136363000Y-76906398D03*
%TD*%
%TO.C,C41*%
X116758000Y-196985287D03*
X116758000Y-198885287D03*
%TD*%
%TO.C,C47*%
X116758000Y-138108620D03*
X116758000Y-140008620D03*
%TD*%
%TO.C,C14*%
X136063000Y-82356398D03*
X136063000Y-84256398D03*
%TD*%
D27*
%TO.C,R154*%
X111758000Y-68919454D03*
X111758000Y-70744454D03*
%TD*%
D12*
%TO.C,R16*%
X154608500Y-105131398D03*
X154608500Y-103306398D03*
%TD*%
%TO.C,R156*%
X116758000Y-56718898D03*
X116758000Y-54893898D03*
%TD*%
D20*
%TO.C,Q25*%
X107758000Y-146484176D03*
X107758000Y-148384176D03*
X109758000Y-147434176D03*
%TD*%
D22*
%TO.C,R18*%
X164828000Y-165146398D03*
X163003000Y-165146398D03*
%TD*%
D10*
%TO.C,R27*%
X120313000Y-46256398D03*
X122138000Y-46256398D03*
%TD*%
D31*
%TO.C,L1*%
X156288000Y-69606398D03*
X150238000Y-69606398D03*
%TD*%
D20*
%TO.C,Q12*%
X107758000Y-201623342D03*
X107758000Y-203523342D03*
X109758000Y-202573342D03*
%TD*%
%TO.C,Q40*%
X107758000Y-64244454D03*
X107758000Y-66144454D03*
X109758000Y-65194454D03*
%TD*%
D27*
%TO.C,R130*%
X111758000Y-108170565D03*
X111758000Y-109995565D03*
%TD*%
D13*
%TO.C,U3*%
X162913000Y-81256398D03*
D14*
X162913000Y-82706398D03*
X162913000Y-84306398D03*
X162913000Y-85906398D03*
X162913000Y-87506398D03*
X162913000Y-89106398D03*
D13*
X162913000Y-90556398D03*
D15*
X164263000Y-81256398D03*
D16*
X164263000Y-82706398D03*
X164263000Y-84306398D03*
X164263000Y-85906398D03*
X164263000Y-87506398D03*
X164263000Y-89106398D03*
D15*
X164263000Y-90556398D03*
X165863000Y-81256398D03*
D16*
X165863000Y-82706398D03*
X165863000Y-84306398D03*
X165863000Y-85906398D03*
X165863000Y-87506398D03*
X165863000Y-89106398D03*
D15*
X165863000Y-90556398D03*
X167463000Y-81256398D03*
D16*
X167463000Y-82706398D03*
X167463000Y-84306398D03*
X167463000Y-85906398D03*
X167463000Y-87506398D03*
X167463000Y-89106398D03*
D15*
X167463000Y-90556398D03*
X169113000Y-81256398D03*
D16*
X169113000Y-82706398D03*
X169113000Y-84306398D03*
X169113000Y-85906398D03*
X169113000Y-87506398D03*
X169113000Y-89106398D03*
D15*
X169113000Y-90556398D03*
X170713000Y-81256398D03*
D16*
X170713000Y-82706398D03*
X170713000Y-84306398D03*
X170713000Y-85906398D03*
X170713000Y-87506398D03*
X170713000Y-89106398D03*
D15*
X170713000Y-90556398D03*
D17*
X157888000Y-82506398D03*
X157888000Y-84206398D03*
X157888000Y-85906398D03*
X157888000Y-87606398D03*
X157888000Y-89306398D03*
%TD*%
D33*
%TO.C,SW1*%
X159463000Y-132631398D03*
X159463000Y-137881398D03*
X156263000Y-132631398D03*
X156263000Y-137881398D03*
%TD*%
D10*
%TO.C,R24*%
X148263000Y-133986398D03*
X150088000Y-133986398D03*
%TD*%
D23*
%TO.C,C20*%
X140863000Y-106356398D03*
X142763000Y-106356398D03*
%TD*%
D34*
%TO.C,D1*%
X148563000Y-124956398D03*
X148563000Y-127056398D03*
%TD*%
D27*
%TO.C,R94*%
X111758000Y-167047231D03*
X111758000Y-168872231D03*
%TD*%
D25*
%TO.C,C40*%
X115058000Y-187385287D03*
X115058000Y-189285287D03*
%TD*%
D12*
%TO.C,R84*%
X116758000Y-174472231D03*
X116758000Y-172647231D03*
%TD*%
D25*
%TO.C,C19*%
X146413000Y-124906398D03*
X146413000Y-126806398D03*
%TD*%
D19*
%TO.C,C21*%
X143963000Y-101706398D03*
X142063000Y-101706398D03*
%TD*%
D25*
%TO.C,C37*%
X116758000Y-236236398D03*
X116758000Y-238136398D03*
%TD*%
D19*
%TO.C,C24*%
X134213000Y-104106398D03*
X132313000Y-104106398D03*
%TD*%
D27*
%TO.C,R58*%
X111758000Y-225923898D03*
X111758000Y-227748898D03*
%TD*%
D25*
%TO.C,C45*%
X116758000Y-157734176D03*
X116758000Y-159634176D03*
%TD*%
%TO.C,C13*%
X139413000Y-82356398D03*
X139413000Y-84256398D03*
%TD*%
D23*
%TO.C,C10*%
X132363000Y-77056398D03*
X134263000Y-77056398D03*
%TD*%
D20*
%TO.C,Q20*%
X107758000Y-162372231D03*
X107758000Y-164272231D03*
X109758000Y-163322231D03*
%TD*%
D27*
%TO.C,R2*%
X131463000Y-62993898D03*
X131463000Y-64818898D03*
%TD*%
D25*
%TO.C,C49*%
X116758000Y-118483065D03*
X116758000Y-120383065D03*
%TD*%
D10*
%TO.C,R41*%
X156483500Y-103856398D03*
X158308500Y-103856398D03*
%TD*%
D25*
%TO.C,C48*%
X115058000Y-108883065D03*
X115058000Y-110783065D03*
%TD*%
D11*
%TO.C,C2*%
X147063000Y-46456398D03*
X147063000Y-51856398D03*
%TD*%
D23*
%TO.C,C15*%
X160363000Y-126756398D03*
X162263000Y-126756398D03*
%TD*%
D35*
%TO.C,C6*%
X139713000Y-76906398D03*
X145113000Y-76906398D03*
%TD*%
D27*
%TO.C,R165*%
X111758000Y-45568898D03*
X111758000Y-47393898D03*
%TD*%
%TO.C,R82*%
X111758000Y-186672787D03*
X111758000Y-188497787D03*
%TD*%
D23*
%TO.C,C18*%
X129763000Y-130216398D03*
X131663000Y-130216398D03*
%TD*%
D22*
%TO.C,R19*%
X162953000Y-189096398D03*
X161128000Y-189096398D03*
%TD*%
D27*
%TO.C,R14*%
X158513000Y-115193898D03*
X158513000Y-117018898D03*
%TD*%
D36*
%TO.C,C3*%
X154863000Y-76906398D03*
X149463000Y-76906398D03*
%TD*%
D12*
%TO.C,R131*%
X115058000Y-87620009D03*
X115058000Y-85795009D03*
%TD*%
D20*
%TO.C,Q33*%
X107758000Y-107233065D03*
X107758000Y-109133065D03*
X109758000Y-108183065D03*
%TD*%
D27*
%TO.C,R117*%
X111758000Y-124071120D03*
X111758000Y-125896120D03*
%TD*%
D37*
%TO.C,LD9*%
X169458000Y-148836398D03*
X171333000Y-148836398D03*
%TD*%
D25*
%TO.C,C51*%
X116758000Y-98857509D03*
X116758000Y-100757509D03*
%TD*%
D12*
%TO.C,R9*%
X172963000Y-68018898D03*
X172963000Y-66193898D03*
%TD*%
D22*
%TO.C,R42*%
X162833500Y-100356398D03*
X161008500Y-100356398D03*
%TD*%
D12*
%TO.C,R47*%
X115058000Y-224998898D03*
X115058000Y-223173898D03*
%TD*%
D31*
%TO.C,L2*%
X136838000Y-69556398D03*
X130788000Y-69556398D03*
%TD*%
D38*
%TO.C,U4*%
X133075500Y-80268898D03*
X132125500Y-80268898D03*
X131175500Y-80268898D03*
X131175500Y-82543898D03*
X133075500Y-82543898D03*
%TD*%
D27*
%TO.C,R69*%
X111758000Y-202573342D03*
X111758000Y-204398342D03*
%TD*%
D25*
%TO.C,C30*%
X139013000Y-222706398D03*
X139013000Y-224606398D03*
%TD*%
D32*
%TO.C,C25*%
X145863000Y-101106398D03*
X145863000Y-99206398D03*
%TD*%
D25*
%TO.C,C50*%
X115058000Y-89257509D03*
X115058000Y-91157509D03*
%TD*%
D27*
%TO.C,R105*%
X111758000Y-143696676D03*
X111758000Y-145521676D03*
%TD*%
D10*
%TO.C,R12*%
X167350500Y-51906398D03*
X169175500Y-51906398D03*
%TD*%
D20*
%TO.C,Q32*%
X107758000Y-103495565D03*
X107758000Y-105395565D03*
X109758000Y-104445565D03*
%TD*%
D22*
%TO.C,R46*%
X162888000Y-109256398D03*
X161063000Y-109256398D03*
%TD*%
D23*
%TO.C,C29*%
X132713000Y-211556398D03*
X134613000Y-211556398D03*
%TD*%
D25*
%TO.C,C36*%
X115058000Y-226636398D03*
X115058000Y-228536398D03*
%TD*%
%TO.C,C54*%
X115058000Y-50006398D03*
X115058000Y-51906398D03*
%TD*%
D37*
%TO.C,LD5*%
X144638000Y-133986398D03*
X146513000Y-133986398D03*
%TD*%
D27*
%TO.C,R142*%
X111758000Y-88545009D03*
X111758000Y-90370009D03*
%TD*%
%TO.C,R25*%
X121363000Y-58093898D03*
X121363000Y-59918898D03*
%TD*%
D25*
%TO.C,C42*%
X115058000Y-167759731D03*
X115058000Y-169659731D03*
%TD*%
%TO.C,C55*%
X116758000Y-59606398D03*
X116758000Y-61506398D03*
%TD*%
D24*
%TO.C,LD3*%
X172800500Y-55456398D03*
X170925500Y-55456398D03*
%TD*%
D25*
%TO.C,C34*%
X128863000Y-105106398D03*
X128863000Y-107006398D03*
%TD*%
D20*
%TO.C,Q24*%
X107758000Y-142746676D03*
X107758000Y-144646676D03*
X109758000Y-143696676D03*
%TD*%
D27*
%TO.C,R15*%
X155463000Y-115131398D03*
X155463000Y-116956398D03*
%TD*%
D19*
%TO.C,C23*%
X126363000Y-111756398D03*
X124463000Y-111756398D03*
%TD*%
D25*
%TO.C,C38*%
X115058000Y-207010842D03*
X115058000Y-208910842D03*
%TD*%
D23*
%TO.C,C17*%
X152683000Y-123056398D03*
X154583000Y-123056398D03*
%TD*%
D27*
%TO.C,R1*%
X150713000Y-63043898D03*
X150713000Y-64868898D03*
%TD*%
D32*
%TO.C,C9*%
X147463000Y-71506398D03*
X147463000Y-69606398D03*
%TD*%
D23*
%TO.C,C32*%
X139263000Y-220556398D03*
X141163000Y-220556398D03*
%TD*%
D27*
%TO.C,R153*%
X111758000Y-65194454D03*
X111758000Y-67019454D03*
%TD*%
D39*
%TO.C,U6*%
X136513000Y-215156398D03*
X135863000Y-215156398D03*
X135213000Y-215156398D03*
X134563000Y-215156398D03*
X133913000Y-215156398D03*
X133263000Y-215156398D03*
X132613000Y-215156398D03*
X131963000Y-215156398D03*
X131313000Y-215156398D03*
X130663000Y-215156398D03*
X130013000Y-215156398D03*
X129363000Y-215156398D03*
X128713000Y-215156398D03*
X128063000Y-215156398D03*
X128063000Y-222356398D03*
X128713000Y-222356398D03*
X129363000Y-222356398D03*
X130013000Y-222356398D03*
X130663000Y-222356398D03*
X131313000Y-222356398D03*
X131963000Y-222356398D03*
X132613000Y-222356398D03*
X133263000Y-222356398D03*
X133913000Y-222356398D03*
X134563000Y-222356398D03*
X135213000Y-222356398D03*
X135863000Y-222356398D03*
X136513000Y-222356398D03*
%TD*%
D12*
%TO.C,R144*%
X116758000Y-76344454D03*
X116758000Y-74519454D03*
%TD*%
D22*
%TO.C,R35*%
X132728000Y-88196398D03*
X130903000Y-88196398D03*
%TD*%
D27*
%TO.C,R129*%
X111758000Y-104445565D03*
X111758000Y-106270565D03*
%TD*%
D10*
%TO.C,R6*%
X163200500Y-92756398D03*
X165025500Y-92756398D03*
%TD*%
D19*
%TO.C,C11*%
X136863000Y-79206398D03*
X134963000Y-79206398D03*
%TD*%
D22*
%TO.C,R22*%
X161508000Y-178896398D03*
X159683000Y-178896398D03*
%TD*%
D20*
%TO.C,Q17*%
X107758000Y-185735287D03*
X107758000Y-187635287D03*
X109758000Y-186685287D03*
%TD*%
D21*
%TO.C,Q5*%
X160113000Y-113306398D03*
X162013000Y-113306398D03*
X161063000Y-111306398D03*
%TD*%
D12*
%TO.C,R59*%
X115058000Y-205373342D03*
X115058000Y-203548342D03*
%TD*%
%TO.C,R7*%
X150713000Y-57718898D03*
X150713000Y-55893898D03*
%TD*%
%TO.C,R60*%
X116758000Y-213723342D03*
X116758000Y-211898342D03*
%TD*%
%TO.C,R155*%
X115058000Y-48368898D03*
X115058000Y-46543898D03*
%TD*%
M02*
