%TF.GenerationSoftware,KiCad,Pcbnew,9.0.0*%
%TF.CreationDate,2025-03-21T01:21:14+03:00*%
%TF.ProjectId,MasterBoard,4d617374-6572-4426-9f61-72642e6b6963,rev?*%
%TF.SameCoordinates,Original*%
%TF.FileFunction,Paste,Bot*%
%TF.FilePolarity,Positive*%
%FSLAX46Y46*%
G04 Gerber Fmt 4.6, Leading zero omitted, Abs format (unit mm)*
G04 Created by KiCad (PCBNEW 9.0.0) date 2025-03-21 01:21:14*
%MOMM*%
%LPD*%
G01*
G04 APERTURE LIST*
G04 Aperture macros list*
%AMRoundRect*
0 Rectangle with rounded corners*
0 $1 Rounding radius*
0 $2 $3 $4 $5 $6 $7 $8 $9 X,Y pos of 4 corners*
0 Add a 4 corners polygon primitive as box body*
4,1,4,$2,$3,$4,$5,$6,$7,$8,$9,$2,$3,0*
0 Add four circle primitives for the rounded corners*
1,1,$1+$1,$2,$3*
1,1,$1+$1,$4,$5*
1,1,$1+$1,$6,$7*
1,1,$1+$1,$8,$9*
0 Add four rect primitives between the rounded corners*
20,1,$1+$1,$2,$3,$4,$5,0*
20,1,$1+$1,$4,$5,$6,$7,0*
20,1,$1+$1,$6,$7,$8,$9,0*
20,1,$1+$1,$8,$9,$2,$3,0*%
G04 Aperture macros list end*
%ADD10RoundRect,0.250000X-0.262500X-0.450000X0.262500X-0.450000X0.262500X0.450000X-0.262500X0.450000X0*%
%ADD11RoundRect,0.250000X-0.450000X0.262500X-0.450000X-0.262500X0.450000X-0.262500X0.450000X0.262500X0*%
%ADD12R,0.900000X0.800000*%
%ADD13RoundRect,0.250000X0.450000X-0.262500X0.450000X0.262500X-0.450000X0.262500X-0.450000X-0.262500X0*%
%ADD14RoundRect,0.243750X-0.243750X-0.456250X0.243750X-0.456250X0.243750X0.456250X-0.243750X0.456250X0*%
%ADD15RoundRect,0.243750X0.243750X0.456250X-0.243750X0.456250X-0.243750X-0.456250X0.243750X-0.456250X0*%
%ADD16RoundRect,0.250000X0.250000X0.475000X-0.250000X0.475000X-0.250000X-0.475000X0.250000X-0.475000X0*%
G04 APERTURE END LIST*
D10*
%TO.C,R113*%
X110895500Y-123121120D03*
X112720500Y-123121120D03*
%TD*%
D11*
%TO.C,R76*%
X115458000Y-193422787D03*
X115458000Y-195247787D03*
%TD*%
D12*
%TO.C,Q27*%
X108708000Y-126858620D03*
X108708000Y-128758620D03*
X106708000Y-127808620D03*
%TD*%
D13*
%TO.C,R146*%
X115458000Y-80994454D03*
X115458000Y-79169454D03*
%TD*%
%TO.C,R61*%
X110308000Y-218373342D03*
X110308000Y-216548342D03*
%TD*%
%TO.C,R85*%
X110308000Y-179122231D03*
X110308000Y-177297231D03*
%TD*%
%TO.C,R134*%
X115458000Y-100620009D03*
X115458000Y-98795009D03*
%TD*%
D12*
%TO.C,Q31*%
X108708000Y-107233065D03*
X108708000Y-109133065D03*
X106708000Y-108183065D03*
%TD*%
D11*
%TO.C,R52*%
X115458000Y-232673898D03*
X115458000Y-234498898D03*
%TD*%
D10*
%TO.C,R125*%
X110895500Y-103495565D03*
X112720500Y-103495565D03*
%TD*%
D11*
%TO.C,R163*%
X104808000Y-45568898D03*
X104808000Y-47393898D03*
%TD*%
D10*
%TO.C,R114*%
X110845500Y-126858620D03*
X112670500Y-126858620D03*
%TD*%
D13*
%TO.C,R145*%
X110308000Y-80994454D03*
X110308000Y-79169454D03*
%TD*%
D11*
%TO.C,R151*%
X104808000Y-65194454D03*
X104808000Y-67019454D03*
%TD*%
D10*
%TO.C,R90*%
X110845500Y-166109731D03*
X112670500Y-166109731D03*
%TD*%
D11*
%TO.C,R136*%
X115458000Y-95295009D03*
X115458000Y-97120009D03*
%TD*%
%TO.C,R111*%
X110308000Y-134546120D03*
X110308000Y-136371120D03*
%TD*%
D10*
%TO.C,R54*%
X110845500Y-224986398D03*
X112670500Y-224986398D03*
%TD*%
D11*
%TO.C,R159*%
X110308000Y-56043898D03*
X110308000Y-57868898D03*
%TD*%
D13*
%TO.C,R110*%
X115458000Y-139871120D03*
X115458000Y-138046120D03*
%TD*%
D14*
%TO.C,LD7*%
X125125500Y-237756398D03*
X127000500Y-237756398D03*
%TD*%
D11*
%TO.C,R79*%
X104808000Y-182947787D03*
X104808000Y-184772787D03*
%TD*%
D13*
%TO.C,R74*%
X115458000Y-198747787D03*
X115458000Y-196922787D03*
%TD*%
D12*
%TO.C,Q15*%
X108708000Y-185735287D03*
X108708000Y-187635287D03*
X106708000Y-186685287D03*
%TD*%
D11*
%TO.C,R128*%
X104758000Y-108170565D03*
X104758000Y-109995565D03*
%TD*%
%TO.C,R152*%
X104758000Y-68919454D03*
X104758000Y-70744454D03*
%TD*%
%TO.C,R139*%
X104808000Y-84820009D03*
X104808000Y-86645009D03*
%TD*%
%TO.C,R67*%
X104808000Y-202573342D03*
X104808000Y-204398342D03*
%TD*%
%TO.C,R148*%
X115458000Y-75669454D03*
X115458000Y-77494454D03*
%TD*%
%TO.C,R92*%
X104758000Y-167047231D03*
X104758000Y-168872231D03*
%TD*%
D10*
%TO.C,R161*%
X110895500Y-44618898D03*
X112720500Y-44618898D03*
%TD*%
D15*
%TO.C,LD6*%
X132150500Y-237856398D03*
X130275500Y-237856398D03*
%TD*%
D13*
%TO.C,R62*%
X115458000Y-218373342D03*
X115458000Y-216548342D03*
%TD*%
D10*
%TO.C,R78*%
X110845500Y-185735287D03*
X112670500Y-185735287D03*
%TD*%
D13*
%TO.C,R133*%
X110308000Y-100620009D03*
X110308000Y-98795009D03*
%TD*%
D12*
%TO.C,Q10*%
X108708000Y-201623342D03*
X108708000Y-203523342D03*
X106708000Y-202573342D03*
%TD*%
D13*
%TO.C,R122*%
X115458000Y-120245565D03*
X115458000Y-118420565D03*
%TD*%
%TO.C,R49*%
X110308000Y-237998898D03*
X110308000Y-236173898D03*
%TD*%
D11*
%TO.C,R123*%
X110308000Y-114920565D03*
X110308000Y-116745565D03*
%TD*%
%TO.C,R103*%
X104808000Y-143696676D03*
X104808000Y-145521676D03*
%TD*%
D13*
%TO.C,R73*%
X110308000Y-198747787D03*
X110308000Y-196922787D03*
%TD*%
%TO.C,R86*%
X115458000Y-179122231D03*
X115458000Y-177297231D03*
%TD*%
%TO.C,R30*%
X130263000Y-233918898D03*
X130263000Y-232093898D03*
%TD*%
D10*
%TO.C,R162*%
X110845500Y-48356398D03*
X112670500Y-48356398D03*
%TD*%
D12*
%TO.C,Q26*%
X108708000Y-123121120D03*
X108708000Y-125021120D03*
X106708000Y-124071120D03*
%TD*%
D10*
%TO.C,R101*%
X110895500Y-142746676D03*
X112720500Y-142746676D03*
%TD*%
D13*
%TO.C,R158*%
X115458000Y-61368898D03*
X115458000Y-59543898D03*
%TD*%
D12*
%TO.C,Q23*%
X108708000Y-146484176D03*
X108708000Y-148384176D03*
X106708000Y-147434176D03*
%TD*%
D16*
%TO.C,C31*%
X134463000Y-224056398D03*
X132563000Y-224056398D03*
%TD*%
D11*
%TO.C,R64*%
X115458000Y-213048342D03*
X115458000Y-214873342D03*
%TD*%
D13*
%TO.C,R97*%
X110308000Y-159496676D03*
X110308000Y-157671676D03*
%TD*%
D11*
%TO.C,R87*%
X110308000Y-173797231D03*
X110308000Y-175622231D03*
%TD*%
%TO.C,R68*%
X104758000Y-206298342D03*
X104758000Y-208123342D03*
%TD*%
%TO.C,R104*%
X104758000Y-147421676D03*
X104758000Y-149246676D03*
%TD*%
D13*
%TO.C,R109*%
X110308000Y-139871120D03*
X110308000Y-138046120D03*
%TD*%
D11*
%TO.C,R147*%
X110308000Y-75669454D03*
X110308000Y-77494454D03*
%TD*%
D10*
%TO.C,R66*%
X110845500Y-205360842D03*
X112670500Y-205360842D03*
%TD*%
D11*
%TO.C,R80*%
X104758000Y-186672787D03*
X104758000Y-188497787D03*
%TD*%
D12*
%TO.C,Q30*%
X108708000Y-103495565D03*
X108708000Y-105395565D03*
X106708000Y-104445565D03*
%TD*%
%TO.C,Q14*%
X108708000Y-181997787D03*
X108708000Y-183897787D03*
X106708000Y-182947787D03*
%TD*%
D11*
%TO.C,R99*%
X110308000Y-154171676D03*
X110308000Y-155996676D03*
%TD*%
%TO.C,R140*%
X104758000Y-88545009D03*
X104758000Y-90370009D03*
%TD*%
%TO.C,R75*%
X110308000Y-193422787D03*
X110308000Y-195247787D03*
%TD*%
D12*
%TO.C,Q42*%
X108708000Y-44618898D03*
X108708000Y-46518898D03*
X106708000Y-45568898D03*
%TD*%
D11*
%TO.C,R115*%
X104808000Y-124071120D03*
X104808000Y-125896120D03*
%TD*%
%TO.C,R116*%
X104758000Y-127796120D03*
X104758000Y-129621120D03*
%TD*%
%TO.C,R56*%
X104758000Y-225923898D03*
X104758000Y-227748898D03*
%TD*%
%TO.C,R63*%
X110308000Y-213048342D03*
X110308000Y-214873342D03*
%TD*%
D10*
%TO.C,R138*%
X110845500Y-87607509D03*
X112670500Y-87607509D03*
%TD*%
D13*
%TO.C,R31*%
X126963000Y-233968898D03*
X126963000Y-232143898D03*
%TD*%
D10*
%TO.C,R149*%
X110895500Y-64244454D03*
X112720500Y-64244454D03*
%TD*%
%TO.C,R77*%
X110895500Y-181997787D03*
X112720500Y-181997787D03*
%TD*%
D12*
%TO.C,Q7*%
X108708000Y-224986398D03*
X108708000Y-226886398D03*
X106708000Y-225936398D03*
%TD*%
D11*
%TO.C,R135*%
X110308000Y-95295009D03*
X110308000Y-97120009D03*
%TD*%
%TO.C,R100*%
X115458000Y-154171676D03*
X115458000Y-155996676D03*
%TD*%
%TO.C,R164*%
X104758000Y-49293898D03*
X104758000Y-51118898D03*
%TD*%
D13*
%TO.C,R157*%
X110308000Y-61368898D03*
X110308000Y-59543898D03*
%TD*%
D11*
%TO.C,R112*%
X115458000Y-134546120D03*
X115458000Y-136371120D03*
%TD*%
D10*
%TO.C,R65*%
X110895500Y-201623342D03*
X112720500Y-201623342D03*
%TD*%
D13*
%TO.C,R98*%
X115458000Y-159496676D03*
X115458000Y-157671676D03*
%TD*%
D10*
%TO.C,R126*%
X110845500Y-107233065D03*
X112670500Y-107233065D03*
%TD*%
D11*
%TO.C,R88*%
X115458000Y-173797231D03*
X115458000Y-175622231D03*
%TD*%
D13*
%TO.C,R121*%
X110308000Y-120245565D03*
X110308000Y-118420565D03*
%TD*%
D11*
%TO.C,R160*%
X115458000Y-56043898D03*
X115458000Y-57868898D03*
%TD*%
D12*
%TO.C,Q38*%
X108708000Y-64244454D03*
X108708000Y-66144454D03*
X106708000Y-65194454D03*
%TD*%
D11*
%TO.C,R55*%
X104808000Y-222198898D03*
X104808000Y-224023898D03*
%TD*%
D12*
%TO.C,Q11*%
X108708000Y-205360842D03*
X108708000Y-207260842D03*
X106708000Y-206310842D03*
%TD*%
%TO.C,Q6*%
X108708000Y-221248898D03*
X108708000Y-223148898D03*
X106708000Y-222198898D03*
%TD*%
%TO.C,Q43*%
X108708000Y-48356398D03*
X108708000Y-50256398D03*
X106708000Y-49306398D03*
%TD*%
D11*
%TO.C,R124*%
X115458000Y-114920565D03*
X115458000Y-116745565D03*
%TD*%
D12*
%TO.C,Q19*%
X108708000Y-166109731D03*
X108708000Y-168009731D03*
X106708000Y-167059731D03*
%TD*%
%TO.C,Q18*%
X108708000Y-162372231D03*
X108708000Y-164272231D03*
X106708000Y-163322231D03*
%TD*%
D10*
%TO.C,R102*%
X110845500Y-146484176D03*
X112670500Y-146484176D03*
%TD*%
D11*
%TO.C,R127*%
X104808000Y-104445565D03*
X104808000Y-106270565D03*
%TD*%
%TO.C,R51*%
X110308000Y-232673898D03*
X110308000Y-234498898D03*
%TD*%
%TO.C,R91*%
X104808000Y-163322231D03*
X104808000Y-165147231D03*
%TD*%
D10*
%TO.C,R53*%
X110895500Y-221248898D03*
X112720500Y-221248898D03*
%TD*%
%TO.C,R137*%
X110895500Y-83870009D03*
X112720500Y-83870009D03*
%TD*%
D12*
%TO.C,Q34*%
X108708000Y-83870009D03*
X108708000Y-85770009D03*
X106708000Y-84820009D03*
%TD*%
%TO.C,Q35*%
X108708000Y-87607509D03*
X108708000Y-89507509D03*
X106708000Y-88557509D03*
%TD*%
D10*
%TO.C,R89*%
X110895500Y-162372231D03*
X112720500Y-162372231D03*
%TD*%
D13*
%TO.C,R50*%
X115458000Y-237998898D03*
X115458000Y-236173898D03*
%TD*%
D12*
%TO.C,Q22*%
X108708000Y-142746676D03*
X108708000Y-144646676D03*
X106708000Y-143696676D03*
%TD*%
D10*
%TO.C,R150*%
X110845500Y-67981954D03*
X112670500Y-67981954D03*
%TD*%
D12*
%TO.C,Q39*%
X108708000Y-67981954D03*
X108708000Y-69881954D03*
X106708000Y-68931954D03*
%TD*%
M02*
