M48
; DRILL file {KiCad 9.0.0} date 2025-03-21T01:21:20+0300
; FORMAT={-:-/ absolute / inch / decimal}
; #@! TF.CreationDate,2025-03-21T01:21:20+03:00
; #@! TF.GenerationSoftware,Kicad,Pcbnew,9.0.0
; #@! TF.FileFunction,NonPlated,1,2,NPTH
FMAT,2
INCH
; #@! TA.AperFunction,NonPlated,NPTH,ComponentDrill
T1C0.0433
; #@! TA.AperFunction,NonPlated,NPTH,ComponentDrill
T2C0.1280
%
G90
G05
T1
X5.0718Y-3.34
T2
X3.6422Y-1.8461
X3.6422Y-2.2961
X3.6422Y-2.6188
X3.6422Y-3.0688
X3.6422Y-3.3914
X3.6422Y-3.8414
X3.6422Y-4.1641
X3.6422Y-4.6141
X3.6422Y-4.9368
X3.6422Y-5.3868
X3.6422Y-5.7094
X3.6422Y-6.1594
X3.6422Y-6.4821
X3.6422Y-6.9321
X3.6422Y-7.2547
X3.6422Y-7.7047
X3.6422Y-8.0274
X3.6422Y-8.4774
X3.6422Y-8.8001
X3.6422Y-9.2501
M30
