%TF.GenerationSoftware,KiCad,Pcbnew,9.0.0*%
%TF.CreationDate,2025-03-21T01:21:14+03:00*%
%TF.ProjectId,MasterBoard,4d617374-6572-4426-9f61-72642e6b6963,rev?*%
%TF.SameCoordinates,Original*%
%TF.FileFunction,Profile,NP*%
%FSLAX46Y46*%
G04 Gerber Fmt 4.6, Leading zero omitted, Abs format (unit mm)*
G04 Created by KiCad (PCBNEW 9.0.0) date 2025-03-21 01:21:14*
%MOMM*%
%LPD*%
G01*
G04 APERTURE LIST*
%TA.AperFunction,Profile*%
%ADD10C,0.050000*%
%TD*%
G04 APERTURE END LIST*
D10*
X123098000Y-214546398D02*
G75*
G02*
X120098000Y-214546398I-1500000J0D01*
G01*
X120098000Y-214546398D02*
G75*
G02*
X123098000Y-214546398I1500000J0D01*
G01*
X174098000Y-235546398D02*
G75*
G02*
X170598000Y-239046400I-3500000J-2D01*
G01*
X84013000Y-44406398D02*
G75*
G02*
X85613000Y-42806400I1600000J-2D01*
G01*
X121598000Y-239046398D02*
X170598000Y-239046398D01*
X128663000Y-49756398D02*
X128663000Y-71656398D01*
X172113000Y-156556398D02*
G75*
G02*
X169113000Y-156556398I-1500000J0D01*
G01*
X169113000Y-156556398D02*
G75*
G02*
X172113000Y-156556398I1500000J0D01*
G01*
X170563000Y-42806398D02*
G75*
G02*
X174063002Y-46306398I0J-3500002D01*
G01*
X85613000Y-42806398D02*
X170563000Y-42806398D01*
X172098000Y-214546398D02*
G75*
G02*
X169098000Y-214546398I-1500000J0D01*
G01*
X169098000Y-214546398D02*
G75*
G02*
X172098000Y-214546398I1500000J0D01*
G01*
X123098000Y-156546398D02*
G75*
G02*
X120098000Y-156546398I-1500000J0D01*
G01*
X120098000Y-156546398D02*
G75*
G02*
X123098000Y-156546398I1500000J0D01*
G01*
X85613000Y-239046398D02*
G75*
G02*
X84023002Y-237456398I0J1589998D01*
G01*
X172113000Y-46156398D02*
G75*
G02*
X169113000Y-46156398I-1500000J0D01*
G01*
X169113000Y-46156398D02*
G75*
G02*
X172113000Y-46156398I1500000J0D01*
G01*
X84023000Y-237456398D02*
X84013000Y-44406398D01*
X174098000Y-235546398D02*
X174098000Y-153046398D01*
X125663000Y-49756398D02*
X125663000Y-71656398D01*
X137563000Y-46156398D02*
G75*
G02*
X134563000Y-46156398I-1500000J0D01*
G01*
X134563000Y-46156398D02*
G75*
G02*
X137563000Y-46156398I1500000J0D01*
G01*
X125663000Y-49756398D02*
G75*
G02*
X128663000Y-49756398I1500000J0D01*
G01*
X85613000Y-239046398D02*
X121598000Y-239046398D01*
X128663000Y-71656398D02*
G75*
G02*
X125663000Y-71656398I-1500000J0D01*
G01*
X174063000Y-46306398D02*
X174098000Y-153046398D01*
M02*
