M48
; DRILL file {KiCad 9.0.0} date 2025-03-21T01:21:20+0300
; FORMAT={-:-/ absolute / inch / decimal}
; #@! TF.CreationDate,2025-03-21T01:21:20+03:00
; #@! TF.GenerationSoftware,Kicad,Pcbnew,9.0.0
; #@! TF.FileFunction,Plated,1,2,PTH
FMAT,2
INCH
; #@! TA.AperFunction,Plated,PTH,ViaDrill
T1C0.0118
; #@! TA.AperFunction,Plated,PTH,ComponentDrill
T2C0.0118
; #@! TA.AperFunction,Plated,PTH,ViaDrill
T3C0.0236
; #@! TA.AperFunction,Plated,PTH,ComponentDrill
T4C0.0295
; #@! TA.AperFunction,Plated,PTH,ComponentDrill
T5C0.0315
; #@! TA.AperFunction,Plated,PTH,ComponentDrill
T6C0.0354
; #@! TA.AperFunction,Plated,PTH,ComponentDrill
T7C0.0362
; #@! TA.AperFunction,Plated,PTH,ComponentDrill
T8C0.0394
; #@! TA.AperFunction,Plated,PTH,ComponentDrill
T9C0.0402
; #@! TA.AperFunction,Plated,PTH,ComponentDrill
T10C0.0630
; #@! TA.AperFunction,Plated,PTH,ComponentDrill
T11C0.0917
; #@! TA.AperFunction,Plated,PTH,ViaDrill
T12C0.1181
%
G90
G05
T1
X3.7387Y-1.9373
X3.8076Y-2.6085
X3.8076Y-3.3821
X3.8076Y-4.1538
X3.8076Y-4.9274
X3.8076Y-5.701
X3.8076Y-6.4727
X3.8076Y-7.2463
X3.8076Y-8.018
X3.8076Y-8.7896
X4.2424Y-1.7566
X4.2424Y-1.7566
X4.2424Y-1.9038
X4.2424Y-1.9038
X4.2424Y-2.5293
X4.2424Y-2.5293
X4.2424Y-2.6765
X4.2424Y-2.6765
X4.2424Y-3.302
X4.2424Y-3.302
X4.2424Y-3.4491
X4.2424Y-3.4491
X4.2424Y-4.0746
X4.2424Y-4.0746
X4.2424Y-4.2218
X4.2424Y-4.2218
X4.2424Y-4.8473
X4.2424Y-4.8473
X4.2424Y-4.9944
X4.2424Y-4.9944
X4.2424Y-5.6199
X4.2424Y-5.6199
X4.2424Y-5.7671
X4.2424Y-5.7671
X4.2424Y-6.3926
X4.2424Y-6.3926
X4.2424Y-6.5398
X4.2424Y-6.5398
X4.2424Y-7.1653
X4.2424Y-7.1653
X4.2424Y-7.3124
X4.2424Y-7.3124
X4.2424Y-7.9379
X4.2424Y-7.9379
X4.2424Y-8.0851
X4.2424Y-8.0851
X4.2424Y-8.7106
X4.2424Y-8.8577
X4.3428Y-2.3442
X4.3428Y-2.3442
X4.3428Y-3.1169
X4.3428Y-3.1169
X4.3428Y-3.8896
X4.3428Y-3.8896
X4.3428Y-4.6622
X4.3428Y-4.6622
X4.3428Y-5.4349
X4.3428Y-5.4349
X4.3428Y-6.2075
X4.3428Y-6.2075
X4.3428Y-6.9802
X4.3428Y-6.9802
X4.3428Y-7.7529
X4.3428Y-7.7529
X4.3428Y-8.5255
X4.3428Y-8.5255
X4.3428Y-9.2982
X4.3999Y-2.0126
X4.3999Y-2.7852
X4.4378Y-2.5293
X4.4378Y-4.8473
X4.4378Y-5.6199
X4.4789Y-8.2581
X4.4899Y-6.4188
X4.495Y-7.1896
X4.5029Y-7.9617
X4.5088Y-4.0746
X4.5277Y-8.7333
X4.5298Y-1.9043
X4.5298Y-2.6051
X4.5298Y-2.745
X4.5298Y-4.2223
X4.5298Y-4.9949
X4.5298Y-6.4684
X4.5298Y-7.2411
X4.5298Y-8.0137
X4.5298Y-8.7864
X4.5773Y-3.4688
X4.5793Y-2.703
X4.5793Y-5.6754
X4.5883Y-3.294
X4.5907Y-7.329
X4.5915Y-6.5625
X4.593Y-5.0176
X4.5946Y-5.8014
X4.5968Y-2.3467
X4.5968Y-2.3467
X4.5968Y-2.9338
X4.5968Y-3.1194
X4.5968Y-3.1194
X4.5968Y-3.7065
X4.5968Y-3.892
X4.5968Y-3.892
X4.5968Y-4.551
X4.5968Y-4.6647
X4.5968Y-4.6647
X4.5968Y-5.2518
X4.5968Y-5.4373
X4.5968Y-5.4373
X4.5968Y-6.0245
X4.5968Y-6.21
X4.5968Y-6.21
X4.5968Y-6.7971
X4.5968Y-6.9827
X4.5968Y-6.9827
X4.5968Y-7.7553
X4.5968Y-7.7553
X4.5968Y-8.528
X4.5968Y-8.528
X4.5968Y-9.187
X4.5968Y-9.3006
X4.597Y-2.514
X4.5978Y-9.1156
X4.6206Y-4.2353
X4.6249Y-4.8203
X4.6249Y-4.8719
X4.6328Y-5.6101
X4.6398Y-2.542
X4.6462Y-3.6853
X4.6501Y-8.9644
X4.6619Y-2.5239
X4.6678Y-4.0258
X4.6678Y-4.0648
X4.6678Y-4.1041
X4.6698Y-4.392
X4.6796Y-6.3077
X4.6802Y-7.0669
X4.6885Y-2.6567
X4.695Y-4.4239
X4.697Y-2.1821
X4.7147Y-8.2239
X4.7167Y-4.5455
X4.7781Y-2.359
X4.7781Y-2.6026
X4.8379Y-2.7778
X4.843Y-3.2392
X4.8915Y-8.2243
X4.9955Y-5.2262
X5.0261Y-4.4195
X5.1107Y-8.3762
X5.1226Y-8.6282
X5.1422Y-4.3231
X5.1649Y-4.8516
X5.1736Y-4.2614
X5.2056Y-5.6357
X5.2072Y-3.9983
X5.2181Y-4.4307
X5.219Y-8.8211
X5.221Y-8.6774
X5.2328Y-3.9983
X5.2414Y-4.3682
X5.2584Y-3.9983
X5.2663Y-4.3546
X5.2958Y-4.342
X5.3363Y-5.0239
X5.3509Y-8.6814
X5.3568Y-3.3172
X5.3596Y-5.038
X5.3824Y-4.3644
X5.3844Y-4.1794
X5.3848Y-5.2656
X5.3903Y-4.2325
X5.395Y-5.0766
X5.3997Y-5.2839
X5.408Y-4.3506
X5.4226Y-5.1093
X5.4253Y-5.3034
X5.4253Y-8.1558
X5.4474Y-4.3447
X5.4493Y-5.3262
X5.4517Y-5.1298
X5.4799Y-4.0512
X5.482Y-5.164
X5.4828Y-8.4365
X5.5366Y-4.3732
X5.5722Y-4.8302
X5.5962Y-4.7971
X5.6541Y-4.3487
X5.6604Y-4.9786
X5.6804Y-4.8274
X5.6875Y-4.9892
X5.7328Y-4.1321
X5.7426Y-3.9806
X5.8249Y-5.5605
X5.8844Y-4.455
X5.888Y-4.48
X5.9012Y-4.5023
X5.909Y-5.2751
X5.909Y-5.2751
X6.0111Y-4.8447
X6.0316Y-5.1652
X6.0383Y-4.9861
X6.0438Y-3.681
X6.0498Y-4.4274
X6.0631Y-4.4821
X6.0694Y-3.7467
X6.0694Y-3.8089
X6.0753Y-4.4392
X6.1206Y-4.6046
X6.1442Y-3.7467
X6.1446Y-3.8089
X6.156Y-6.0542
X6.1615Y-6.7455
X6.1962Y-3.7325
X6.2269Y-5.6483
X6.2412Y-4.9884
X6.2426Y-4.6085
X6.3135Y-5.6172
X6.3926Y-6.8967
X6.406Y-5.7105
X6.406Y-6.0947
X6.5017Y-5.4286
X6.545Y-3.7632
X6.607Y-3.8752
X6.6222Y-3.8571
X6.6411Y-4.3991
X6.6411Y-4.7562
X6.6411Y-4.831
X6.6411Y-5.1979
X6.6411Y-5.2837
X6.6415Y-3.9589
X6.6415Y-4.3211
X6.6647Y-5.1991
X6.6647Y-5.2843
X6.6647Y-4.3986
X6.6647Y-4.7562
X6.6647Y-4.831
X6.6651Y-3.9596
X6.6651Y-4.3211
X6.8096Y-2.6779
T2
X5.5478Y-2.1991
X5.5478Y-2.2621
X5.5478Y-2.3251
X5.5478Y-2.388
X5.5478Y-2.451
X5.5478Y-2.514
X5.6107Y-2.1991
X5.6107Y-2.2621
X5.6107Y-2.3251
X5.6107Y-2.388
X5.6107Y-2.451
X5.6107Y-2.514
X5.6737Y-2.1991
X5.6737Y-2.2621
X5.6737Y-2.3251
X5.6737Y-2.388
X5.6737Y-2.451
X5.6737Y-2.514
X5.7367Y-2.1991
X5.7367Y-2.2621
X5.7367Y-2.3251
X5.7367Y-2.388
X5.7367Y-2.451
X5.7367Y-2.514
X5.7997Y-2.1991
X5.7997Y-2.2621
X5.7997Y-2.3251
X5.7997Y-2.388
X5.7997Y-2.451
X5.7997Y-2.514
X6.3056Y-2.1991
X6.3056Y-2.2621
X6.3056Y-2.3251
X6.3056Y-2.388
X6.3056Y-2.451
X6.3056Y-2.514
X6.3686Y-2.1991
X6.3686Y-2.2621
X6.3686Y-2.3251
X6.3686Y-2.388
X6.3686Y-2.451
X6.3686Y-2.514
X6.4316Y-2.1991
X6.4316Y-2.2621
X6.4316Y-2.3251
X6.4316Y-2.388
X6.4316Y-2.451
X6.4316Y-2.514
X6.4356Y-3.2247
X6.4356Y-3.2877
X6.4356Y-3.3506
X6.4356Y-3.4136
X6.4356Y-3.4766
X6.4356Y-3.5396
X6.4946Y-2.1991
X6.4946Y-2.2621
X6.4946Y-2.3251
X6.4946Y-2.388
X6.4946Y-2.451
X6.4946Y-2.514
X6.4985Y-3.2247
X6.4985Y-3.2877
X6.4985Y-3.3506
X6.4985Y-3.4136
X6.4985Y-3.4766
X6.4985Y-3.5396
X6.5576Y-2.1991
X6.5576Y-2.2621
X6.5576Y-2.3251
X6.5576Y-2.388
X6.5576Y-2.451
X6.5576Y-2.514
X6.5615Y-3.2247
X6.5615Y-3.2877
X6.5615Y-3.3506
X6.5615Y-3.4136
X6.5615Y-3.4766
X6.5615Y-3.5396
X6.6245Y-3.2247
X6.6245Y-3.2877
X6.6245Y-3.3506
X6.6245Y-3.4136
X6.6245Y-3.4766
X6.6245Y-3.5396
X6.6875Y-3.2247
X6.6875Y-3.2877
X6.6875Y-3.3506
X6.6875Y-3.4136
X6.6875Y-3.4766
X6.6875Y-3.5396
T3
X5.2298Y-2.8191
X5.3283Y-2.3566
X5.3283Y-2.4904
X5.4217Y-4.7465
X6.0861Y-2.3566
X6.0861Y-2.4904
T4
X4.2306Y-2.1991
X4.2306Y-2.2778
X4.2306Y-2.3566
X4.2306Y-2.9717
X4.2306Y-3.0505
X4.2306Y-3.1292
X4.2306Y-3.7444
X4.2306Y-3.8231
X4.2306Y-3.9019
X4.2306Y-4.517
X4.2306Y-4.5958
X4.2306Y-4.6745
X4.2306Y-5.2897
X4.2306Y-5.3684
X4.2306Y-5.4472
X4.2306Y-6.0624
X4.2306Y-6.1411
X4.2306Y-6.2198
X4.2306Y-6.835
X4.2306Y-6.9138
X4.2306Y-6.9925
X4.2306Y-7.6077
X4.2306Y-7.6864
X4.2306Y-7.7652
X4.2306Y-8.3803
X4.2306Y-8.4591
X4.2306Y-8.5378
X4.2306Y-9.153
X4.2306Y-9.2317
X4.2306Y-9.3105
X4.4511Y-2.1991
X4.4511Y-2.2778
X4.4511Y-2.3566
X4.4511Y-2.9717
X4.4511Y-3.0505
X4.4511Y-3.1292
X4.4511Y-3.7444
X4.4511Y-3.8231
X4.4511Y-3.9019
X4.4511Y-4.517
X4.4511Y-4.5958
X4.4511Y-4.6745
X4.4511Y-5.2897
X4.4511Y-5.3684
X4.4511Y-5.4472
X4.4511Y-6.0624
X4.4511Y-6.1411
X4.4511Y-6.2198
X4.4511Y-6.835
X4.4511Y-6.9138
X4.4511Y-6.9925
X4.4511Y-7.6077
X4.4511Y-7.6864
X4.4511Y-7.7652
X4.4511Y-8.3803
X4.4511Y-8.4591
X4.4511Y-8.5378
X4.4511Y-9.153
X4.4511Y-9.2317
X4.4511Y-9.3105
X4.8548Y-3.9747
X4.8568Y-4.1951
X4.9336Y-3.9747
X4.9356Y-4.1951
X5.0206Y-5.366
X5.0206Y-5.4447
X6.5812Y-3.9215
X6.5812Y-4.0003
X6.5812Y-4.079
X6.5812Y-4.1577
X6.5812Y-4.3585
X6.5812Y-4.4373
X6.5812Y-4.516
X6.5812Y-4.5947
X6.5812Y-4.7936
X6.5812Y-4.8723
X6.5812Y-4.951
X6.5812Y-5.0298
X6.5812Y-5.2365
X6.5812Y-5.3152
X6.5812Y-5.394
X6.5812Y-5.4727
T5
X5.3667Y-3.8526
X5.5588Y-3.8526
T6
X3.8922Y-1.8961
X3.8922Y-1.9961
X3.8922Y-2.0961
X3.8922Y-2.1961
X3.8922Y-2.6688
X3.8922Y-2.7688
X3.8922Y-2.8688
X3.8922Y-2.9688
X3.8922Y-3.4414
X3.8922Y-3.5414
X3.8922Y-3.6414
X3.8922Y-3.7414
X3.8922Y-4.2141
X3.8922Y-4.3141
X3.8922Y-4.4141
X3.8922Y-4.5141
X3.8922Y-4.9868
X3.8922Y-5.0868
X3.8922Y-5.1868
X3.8922Y-5.2868
X3.8922Y-5.7594
X3.8922Y-5.8594
X3.8922Y-5.9594
X3.8922Y-6.0594
X3.8922Y-6.5321
X3.8922Y-6.6321
X3.8922Y-6.7321
X3.8922Y-6.8321
X3.8922Y-7.3047
X3.8922Y-7.4047
X3.8922Y-7.5047
X3.8922Y-7.6047
X3.8922Y-8.0774
X3.8922Y-8.1774
X3.8922Y-8.2774
X3.8922Y-8.3774
X3.8922Y-8.8501
X3.8922Y-8.9501
X3.8922Y-9.0501
X3.8922Y-9.1501
X3.9922Y-1.9461
X3.9922Y-2.0461
X3.9922Y-2.1461
X3.9922Y-2.2461
X3.9922Y-2.7188
X3.9922Y-2.8188
X3.9922Y-2.9188
X3.9922Y-3.0188
X3.9922Y-3.4914
X3.9922Y-3.5914
X3.9922Y-3.6914
X3.9922Y-3.7914
X3.9922Y-4.2641
X3.9922Y-4.3641
X3.9922Y-4.4641
X3.9922Y-4.5641
X3.9922Y-5.0368
X3.9922Y-5.1368
X3.9922Y-5.2368
X3.9922Y-5.3368
X3.9922Y-5.8094
X3.9922Y-5.9094
X3.9922Y-6.0094
X3.9922Y-6.1094
X3.9922Y-6.5821
X3.9922Y-6.6821
X3.9922Y-6.7821
X3.9922Y-6.8821
X3.9922Y-7.3547
X3.9922Y-7.4547
X3.9922Y-7.5547
X3.9922Y-7.6547
X3.9922Y-8.1274
X3.9922Y-8.2274
X3.9922Y-8.3274
X3.9922Y-8.4274
X3.9922Y-8.9001
X3.9922Y-9.0001
X3.9922Y-9.1001
X3.9922Y-9.2001
T7
X5.0293Y-8.929
X5.0293Y-9.0077
X5.1277Y-8.929
X5.1277Y-9.0077
T8
X5.8789Y-5.1006
X5.9789Y-5.1006
X6.0789Y-5.1006
X6.1754Y-3.8794
X6.1754Y-3.9794
X6.1754Y-4.2258
X6.1754Y-4.3258
X6.1789Y-5.1006
X6.2789Y-5.1006
X6.3816Y-1.829
X6.4816Y-1.829
X6.6459Y-5.6621
X6.6459Y-5.7621
X6.6663Y-6.3369
X6.6663Y-6.4369
X6.6663Y-6.5369
X6.6663Y-6.6369
X6.6663Y-6.7369
X6.6663Y-6.8369
X6.6663Y-6.9369
X6.6663Y-7.0369
X6.6663Y-7.1369
X6.6663Y-7.2369
X6.6663Y-7.3369
X6.6663Y-7.4369
X6.6663Y-7.5369
X6.6663Y-7.6369
X6.6663Y-7.7369
X6.6663Y-7.8369
X6.6663Y-7.9369
X6.6663Y-8.0369
X6.6663Y-8.1369
X6.6663Y-8.2369
X6.7663Y-6.3369
X6.7663Y-6.4369
X6.7663Y-6.5369
X6.7663Y-6.6369
X6.7663Y-6.7369
X6.7663Y-6.8369
X6.7663Y-6.9369
X6.7663Y-7.0369
X6.7663Y-7.1369
X6.7663Y-7.2369
X6.7663Y-7.3369
X6.7663Y-7.4369
X6.7663Y-7.5369
X6.7663Y-7.6369
X6.7663Y-7.7369
X6.7663Y-7.8369
X6.7663Y-7.9369
X6.7663Y-8.0369
X6.7663Y-8.1369
X6.7663Y-8.2369
T9
X4.9867Y-3.14
X4.9867Y-3.24
X4.9867Y-3.34
X4.9867Y-3.44
T10
X3.5222Y-1.7652
X3.5222Y-2.377
X3.5222Y-2.5379
X3.5222Y-3.1497
X3.5222Y-3.3105
X3.5222Y-3.9223
X3.5222Y-4.0832
X3.5222Y-4.695
X3.5222Y-4.8559
X3.5222Y-5.4677
X3.5222Y-5.6285
X3.5222Y-6.2403
X3.5222Y-6.4012
X3.5222Y-7.013
X3.5222Y-7.1738
X3.5222Y-7.7856
X3.5222Y-7.9465
X3.5222Y-8.5583
X3.5222Y-8.7191
X3.5222Y-9.331
T11
X4.8415Y-9.1144
X5.3155Y-9.1144
T12
X4.7873Y-6.1632
X4.7873Y-8.4467
X5.3568Y-1.8172
X6.7165Y-8.4467
X6.717Y-1.8172
M30
